<svg width="165" height="39" viewBox="0 0 165 39" fill="none" xmlns="http://www.w3.org/2000/svg">
<path d="M41.9688 18.3672L39.2031 24.8125H44.6641L41.9688 18.3672ZM44.8047 31V30.5547C45.1094 30.5469 45.3633 30.5195 45.5664 30.4727C45.7773 30.418 45.9453 30.3477 46.0703 30.2617C46.1953 30.1758 46.2812 30.0742 46.3281 29.957C46.3828 29.832 46.4102 29.6953 46.4102 29.5469C46.4102 29.3203 46.3594 29.0703 46.2578 28.7969C46.1641 28.5156 46.0586 28.2344 45.9414 27.9531L44.9922 25.668H38.8281L37.75 28.1992C37.6328 28.4727 37.5352 28.7188 37.457 28.9375C37.3867 29.1562 37.3516 29.3555 37.3516 29.5352C37.3516 29.6836 37.3828 29.8164 37.4453 29.9336C37.5078 30.043 37.6094 30.1406 37.75 30.2266C37.8984 30.3047 38.0898 30.3711 38.3242 30.4258C38.5586 30.4805 38.8516 30.5234 39.2031 30.5547V31H34.1758V30.5547C34.4102 30.5391 34.6328 30.4922 34.8438 30.4141C35.0625 30.3359 35.2773 30.1992 35.4883 30.0039C35.707 29.8008 35.9258 29.5273 36.1445 29.1836C36.3633 28.8398 36.5898 28.3906 36.8242 27.8359L42.4023 14.7344H42.8242L48.3438 27.9531C48.5781 28.5078 48.7891 28.9531 48.9766 29.2891C49.1641 29.6172 49.3555 29.8711 49.5508 30.0508C49.7539 30.2305 49.9727 30.3555 50.207 30.4258C50.4492 30.4883 50.7344 30.5312 51.0625 30.5547V31H44.8047ZM59.1719 19.9609V23.6172H58.7852C58.6445 23.0391 58.4766 22.5586 58.2812 22.1758C58.0859 21.793 57.8672 21.4883 57.625 21.2617C57.3828 21.0273 57.1133 20.8633 56.8164 20.7695C56.5273 20.6758 56.2148 20.6289 55.8789 20.6289C55.1602 20.6289 54.6328 20.7617 54.2969 21.0273C53.9609 21.2852 53.793 21.6211 53.793 22.0352C53.793 22.2539 53.8125 22.4609 53.8516 22.6562C53.8984 22.8516 53.9844 23.0391 54.1094 23.2188C54.2422 23.3984 54.4219 23.5781 54.6484 23.7578C54.8828 23.9297 55.1836 24.1016 55.5508 24.2734L57.2852 25.0938C58.0977 25.4766 58.7109 25.9336 59.125 26.4648C59.5469 26.9961 59.7578 27.6055 59.7578 28.293C59.7578 28.707 59.6602 29.0977 59.4648 29.4648C59.2695 29.832 59.0078 30.1562 58.6797 30.4375C58.3516 30.7188 57.9688 30.9414 57.5312 31.1055C57.1016 31.2695 56.6484 31.3516 56.1719 31.3516C55.8828 31.3516 55.6016 31.3164 55.3281 31.2461C55.0625 31.1836 54.8047 31.1094 54.5547 31.0234C54.3125 30.9375 54.082 30.8555 53.8633 30.7773C53.6523 30.6992 53.457 30.6484 53.2773 30.625C53.1914 30.625 53.1094 30.6875 53.0312 30.8125C52.9609 30.9375 52.9062 31.0508 52.8672 31.1523H52.4805V27.3203H52.8672C52.9688 27.8672 53.125 28.3477 53.3359 28.7617C53.5469 29.168 53.7969 29.5117 54.0859 29.793C54.3828 30.0664 54.707 30.2734 55.0586 30.4141C55.418 30.5547 55.7891 30.625 56.1719 30.625C56.4609 30.625 56.7188 30.582 56.9453 30.4961C57.1719 30.4102 57.3633 30.2969 57.5195 30.1562C57.6758 30.0078 57.7969 29.8398 57.8828 29.6523C57.9688 29.457 58.0117 29.2539 58.0117 29.043C58.0117 28.7773 57.9766 28.5352 57.9062 28.3164C57.8438 28.0977 57.7148 27.8789 57.5195 27.6602C57.3242 27.4414 57.0469 27.2148 56.6875 26.9805C56.3359 26.7383 55.8711 26.4688 55.293 26.1719C54.7227 25.8828 54.25 25.6094 53.875 25.3516C53.5078 25.0859 53.2148 24.8242 52.9961 24.5664C52.7852 24.3008 52.6367 24.0273 52.5508 23.7461C52.4648 23.4648 52.4219 23.1562 52.4219 22.8203C52.4219 22.4219 52.4961 22.0508 52.6445 21.707C52.8008 21.3555 53.0273 21.0508 53.3242 20.793C53.6211 20.5352 53.9844 20.332 54.4141 20.1836C54.8516 20.0352 55.3516 19.9609 55.9141 19.9609C56.1562 19.9609 56.3945 19.9844 56.6289 20.0312C56.8711 20.0703 57.0977 20.1172 57.3086 20.1719C57.5195 20.2188 57.707 20.2656 57.8711 20.3125C58.0352 20.3516 58.1641 20.3711 58.2578 20.3711C58.3672 20.3711 58.457 20.3516 58.5273 20.3125C58.6055 20.2656 58.6914 20.1484 58.7852 19.9609H59.1719ZM68.5234 19.9609V23.6172H68.1367C67.9961 23.0391 67.8281 22.5586 67.6328 22.1758C67.4375 21.793 67.2188 21.4883 66.9766 21.2617C66.7344 21.0273 66.4648 20.8633 66.168 20.7695C65.8789 20.6758 65.5664 20.6289 65.2305 20.6289C64.5117 20.6289 63.9844 20.7617 63.6484 21.0273C63.3125 21.2852 63.1445 21.6211 63.1445 22.0352C63.1445 22.2539 63.1641 22.4609 63.2031 22.6562C63.25 22.8516 63.3359 23.0391 63.4609 23.2188C63.5938 23.3984 63.7734 23.5781 64 23.7578C64.2344 23.9297 64.5352 24.1016 64.9023 24.2734L66.6367 25.0938C67.4492 25.4766 68.0625 25.9336 68.4766 26.4648C68.8984 26.9961 69.1094 27.6055 69.1094 28.293C69.1094 28.707 69.0117 29.0977 68.8164 29.4648C68.6211 29.832 68.3594 30.1562 68.0312 30.4375C67.7031 30.7188 67.3203 30.9414 66.8828 31.1055C66.4531 31.2695 66 31.3516 65.5234 31.3516C65.2344 31.3516 64.9531 31.3164 64.6797 31.2461C64.4141 31.1836 64.1562 31.1094 63.9062 31.0234C63.6641 30.9375 63.4336 30.8555 63.2148 30.7773C63.0039 30.6992 62.8086 30.6484 62.6289 30.625C62.543 30.625 62.4609 30.6875 62.3828 30.8125C62.3125 30.9375 62.2578 31.0508 62.2188 31.1523H61.832V27.3203H62.2188C62.3203 27.8672 62.4766 28.3477 62.6875 28.7617C62.8984 29.168 63.1484 29.5117 63.4375 29.793C63.7344 30.0664 64.0586 30.2734 64.4102 30.4141C64.7695 30.5547 65.1406 30.625 65.5234 30.625C65.8125 30.625 66.0703 30.582 66.2969 30.4961C66.5234 30.4102 66.7148 30.2969 66.8711 30.1562C67.0273 30.0078 67.1484 29.8398 67.2344 29.6523C67.3203 29.457 67.3633 29.2539 67.3633 29.043C67.3633 28.7773 67.3281 28.5352 67.2578 28.3164C67.1953 28.0977 67.0664 27.8789 66.8711 27.6602C66.6758 27.4414 66.3984 27.2148 66.0391 26.9805C65.6875 26.7383 65.2227 26.4688 64.6445 26.1719C64.0742 25.8828 63.6016 25.6094 63.2266 25.3516C62.8594 25.0859 62.5664 24.8242 62.3477 24.5664C62.1367 24.3008 61.9883 24.0273 61.9023 23.7461C61.8164 23.4648 61.7734 23.1562 61.7734 22.8203C61.7734 22.4219 61.8477 22.0508 61.9961 21.707C62.1523 21.3555 62.3789 21.0508 62.6758 20.793C62.9727 20.5352 63.3359 20.332 63.7656 20.1836C64.2031 20.0352 64.7031 19.9609 65.2656 19.9609C65.5078 19.9609 65.7461 19.9844 65.9805 20.0312C66.2227 20.0703 66.4492 20.1172 66.6602 20.1719C66.8711 20.2188 67.0586 20.2656 67.2227 20.3125C67.3867 20.3516 67.5156 20.3711 67.6094 20.3711C67.7188 20.3711 67.8086 20.3516 67.8789 20.3125C67.957 20.2656 68.043 20.1484 68.1367 19.9609H68.5234ZM77.4883 23.6406C77.4883 23.0469 77.4023 22.5664 77.2305 22.1992C77.0586 21.8242 76.8516 21.5312 76.6094 21.3203C76.3672 21.1094 76.1133 20.9648 75.8477 20.8867C75.582 20.8086 75.3516 20.7695 75.1562 20.7695C74.8359 20.7695 74.5273 20.832 74.2305 20.957C73.9336 21.082 73.6641 21.2656 73.4219 21.5078C73.1797 21.75 72.9766 22.0508 72.8125 22.4102C72.6484 22.7695 72.543 23.1797 72.4961 23.6406H77.4883ZM79.9375 27.0742C79.8594 27.5977 79.6992 28.1172 79.457 28.6328C79.2227 29.1406 78.9141 29.5977 78.5312 30.0039C78.1562 30.4023 77.7148 30.7266 77.207 30.9766C76.6992 31.2266 76.1367 31.3516 75.5195 31.3516C74.8867 31.3516 74.2852 31.2227 73.7148 30.9648C73.1445 30.6992 72.6445 30.3242 72.2148 29.8398C71.793 29.3477 71.457 28.7578 71.207 28.0703C70.957 27.3828 70.832 26.6094 70.832 25.75C70.832 24.8438 70.9531 24.0312 71.1953 23.3125C71.4453 22.5938 71.7891 21.9844 72.2266 21.4844C72.6719 20.9844 73.1992 20.6016 73.8086 20.3359C74.418 20.0703 75.0859 19.9375 75.8125 19.9375C76.4062 19.9375 76.9531 20.0391 77.4531 20.2422C77.9609 20.4375 78.3984 20.7227 78.7656 21.0977C79.1328 21.4727 79.418 21.9297 79.6211 22.4688C79.832 23.0078 79.9375 23.6172 79.9375 24.2969H72.4961C72.4961 25.1016 72.6016 25.8203 72.8125 26.4531C73.0234 27.0859 73.3086 27.6211 73.668 28.0586C74.0273 28.4961 74.4414 28.832 74.9102 29.0664C75.3867 29.293 75.8867 29.4062 76.4102 29.4062C76.7617 29.4062 77.0859 29.3672 77.3828 29.2891C77.6875 29.2031 77.9688 29.0625 78.2266 28.8672C78.4844 28.6641 78.7227 28.3984 78.9414 28.0703C79.168 27.7422 79.375 27.332 79.5625 26.8398L79.9375 27.0742ZM87.3203 29.043C87.1953 29.4414 87.0273 29.7852 86.8164 30.0742C86.6133 30.3633 86.3867 30.6016 86.1367 30.7891C85.8945 30.9766 85.6406 31.1172 85.375 31.2109C85.1172 31.3047 84.8711 31.3516 84.6367 31.3516C84.3789 31.3516 84.125 31.3164 83.875 31.2461C83.625 31.1758 83.3984 31.0391 83.1953 30.8359C82.9922 30.625 82.8281 30.3359 82.7031 29.9688C82.5781 29.5938 82.5156 29.1055 82.5156 28.5039V21.0625H80.793V20.6992C81.1211 20.582 81.4609 20.3789 81.8125 20.0898C82.1641 19.793 82.4922 19.4648 82.7969 19.1055C82.8984 18.9805 82.9922 18.8594 83.0781 18.7422C83.1719 18.6172 83.2695 18.4727 83.3711 18.3086C83.4727 18.1367 83.582 17.9297 83.6992 17.6875C83.8164 17.4375 83.957 17.1172 84.1211 16.7266H84.4727V20.2656H86.9922V21.0625H84.4727V28.2227C84.4727 28.5742 84.5 28.8672 84.5547 29.1016C84.6094 29.3281 84.6836 29.5078 84.7773 29.6406C84.8789 29.7734 84.9922 29.8672 85.1172 29.9219C85.25 29.9766 85.3906 30.0039 85.5391 30.0039C85.8281 30.0039 86.082 29.9219 86.3008 29.7578C86.5273 29.5859 86.7109 29.3477 86.8516 29.043H87.3203ZM101.383 31V30.5547H101.934C102.309 30.5547 102.605 30.5078 102.824 30.4141C103.051 30.3203 103.238 30.1641 103.387 29.9453C103.559 29.7031 103.645 29.1289 103.645 28.2227V17.6289L97.5039 31H97.1055L90.9766 17.6289V28.2227C90.9766 28.7227 91.0039 29.125 91.0586 29.4297C91.1211 29.7344 91.207 29.9492 91.3164 30.0742C91.4492 30.2305 91.625 30.3516 91.8438 30.4375C92.0703 30.5156 92.3477 30.5547 92.6758 30.5547H93.2266V31H87.7188V30.5547H88.2695C88.6055 30.5547 88.8867 30.5117 89.1133 30.4258C89.3477 30.332 89.543 30.1719 89.6992 29.9453C89.8477 29.7188 89.9219 29.1445 89.9219 28.2227V17.8633C89.9219 17.3633 89.8906 16.9609 89.8281 16.6562C89.7656 16.3516 89.6289 16.1211 89.418 15.9648C89.2461 15.832 89.0352 15.7266 88.7852 15.6484C88.543 15.5703 88.1875 15.5312 87.7188 15.5312V15.1094H92.1953L97.9609 27.543L103.645 15.1094H108.145V15.5312H107.594C107.258 15.5312 106.965 15.5781 106.715 15.6719C106.465 15.7656 106.273 15.918 106.141 16.1289C106.055 16.2617 105.992 16.4727 105.953 16.7617C105.914 17.043 105.895 17.4102 105.895 17.8633V28.2227C105.895 29.207 106.008 29.8242 106.234 30.0742C106.508 30.3945 106.961 30.5547 107.594 30.5547H108.145V31H101.383ZM125.395 22.75C125.066 22.75 124.805 22.8047 124.609 22.9141C124.414 23.0156 124.258 23.168 124.141 23.3711C123.977 23.6523 123.895 24.2266 123.895 25.0938V29.9453C123.004 30.4609 122.102 30.8281 121.188 31.0469C120.273 31.2656 119.312 31.375 118.305 31.375C116.922 31.375 115.688 31.168 114.602 30.7539C113.516 30.332 112.594 29.7578 111.836 29.0312C111.078 28.3047 110.5 27.4492 110.102 26.4648C109.703 25.4805 109.504 24.4219 109.504 23.2891C109.504 22.6406 109.582 21.9805 109.738 21.3086C109.902 20.6289 110.145 19.9727 110.465 19.3398C110.785 18.707 111.18 18.1133 111.648 17.5586C112.125 16.9961 112.676 16.5078 113.301 16.0938C113.926 15.6719 114.625 15.3398 115.398 15.0977C116.172 14.8555 117.016 14.7344 117.93 14.7344C118.594 14.7344 119.172 14.7891 119.664 14.8984C120.164 15 120.594 15.1172 120.953 15.25C121.312 15.375 121.609 15.4922 121.844 15.6016C122.078 15.7031 122.27 15.7539 122.418 15.7539C122.52 15.7539 122.629 15.6875 122.746 15.5547C122.863 15.4219 122.945 15.1484 122.992 14.7344H123.438L123.824 19.75H123.438C123.18 18.9922 122.875 18.3516 122.523 17.8281C122.172 17.2969 121.773 16.8633 121.328 16.5273C120.883 16.1836 120.395 15.9375 119.863 15.7891C119.332 15.6328 118.766 15.5547 118.164 15.5547C117.195 15.5547 116.34 15.7383 115.598 16.1055C114.855 16.4727 114.23 16.9805 113.723 17.6289C113.223 18.2773 112.844 19.043 112.586 19.9258C112.328 20.8008 112.199 21.75 112.199 22.7734C112.199 23.9141 112.355 24.9609 112.668 25.9141C112.98 26.8594 113.41 27.6797 113.957 28.375C114.504 29.0625 115.148 29.5977 115.891 29.9805C116.641 30.3633 117.453 30.5547 118.328 30.5547C118.891 30.5547 119.445 30.4922 119.992 30.3672C120.547 30.2344 121.086 30.0039 121.609 29.6758V25.0938C121.609 24.5938 121.582 24.1953 121.527 23.8984C121.473 23.5938 121.367 23.3594 121.211 23.1953C121.062 23.0312 120.852 22.9219 120.578 22.8672C120.312 22.8047 119.965 22.7656 119.535 22.75V22.3398H125.664V22.75H125.395ZM139.574 18.8359C139.543 18.5469 139.504 18.3008 139.457 18.0977C139.41 17.8867 139.355 17.707 139.293 17.5586C139.23 17.4023 139.16 17.2734 139.082 17.1719C139.012 17.0625 138.93 16.9609 138.836 16.8672C138.586 16.6016 138.293 16.4062 137.957 16.2812C137.629 16.1484 137.199 16.082 136.668 16.082H134.418V28.2227C134.418 28.7227 134.445 29.125 134.5 29.4297C134.562 29.7344 134.645 29.9492 134.746 30.0742C135.02 30.3945 135.473 30.5547 136.105 30.5547H136.668V31H129.918V30.5547H130.492C130.844 30.5547 131.129 30.5117 131.348 30.4258C131.574 30.332 131.766 30.1719 131.922 29.9453C132.008 29.8281 132.07 29.6289 132.109 29.3477C132.148 29.0664 132.168 28.6914 132.168 28.2227V16.082H130.27C129.949 16.082 129.68 16.0898 129.461 16.1055C129.242 16.1211 129.051 16.1523 128.887 16.1992C128.723 16.2383 128.582 16.2891 128.465 16.3516C128.348 16.4141 128.23 16.4922 128.113 16.5859C127.84 16.8125 127.617 17.1094 127.445 17.4766C127.273 17.8438 127.164 18.2969 127.117 18.8359H126.59L126.766 15.1094H139.949L140.078 18.8359H139.574Z" fill="black"/>
<path d="M27.1875 15.5625L15.9375 26.8125L11.25 22.125L2.8125 30.5625" stroke="#6C9F2A" stroke-width="2" stroke-linecap="round" stroke-linejoin="round"/>
<path d="M27.1875 23.0625V15.5625H19.6875" stroke="#6C9F2A" stroke-width="2" stroke-linecap="round" stroke-linejoin="round"/>
</svg>
